<?xml version="1.0" encoding="UTF-8"?>
<svg width="1350px" height="1350px" viewBox="0 0 1350 1350" version="1.1" xmlns="http://www.w3.org/2000/svg" xmlns:xlink="http://www.w3.org/1999/xlink">
    <title>Slice</title>
    <g id="Page-1" stroke="none" stroke-width="1" fill="none" fill-rule="evenodd">
        <rect id="Rectangle" fill="#E7EEF3" x="0" y="0" width="1350" height="1350" rx="81"></rect>
        <path d="M344.5,1327.9 C321.2,1326.7 293.7,1322.9 258,1316 C201.8,1305.2 182.3,1299.3 142,1280.5 C125.6,1272.8 121.7,1270.5 107.4,1259.7 C92.3,1248.5 82,1235.8 77.1,1222.6 C75.3,1217.7 75.3,1212.2 75.5,1068 C75.7,959.9 76.1,917.2 76.9,913.7 C78.5,906.7 82.1,900.3 88.8,891.9 C102.4,874.9 117.8,862.6 139.4,851.6 C151,845.6 175.6,835.8 189,831.7 C203.5,827.3 241.8,818.2 257.5,815.5 C265.8,814 275.7,812.2 279.5,811.4 C307.4,805.8 330.3,803.6 374.5,802.5 C411.7,801.5 438.2,803.3 493.5,810.5 C524.7,814.5 539.5,817.3 571,825.3 C594.1,831.1 604.7,834.8 628.8,845.5 C658.5,858.6 678,874.7 692.1,897.5 C701.6,912.9 701.5,911.7 701.6,965.7 C701.6,991.7 701.9,1013.2 702.2,1013.6 C702.5,1013.9 705.9,1013.2 709.6,1012.1 C716.7,1010 727.2,1008.6 744.5,1007.4 C750,1007.1 755.9,1006.2 757.6,1005.5 L760.7,1004.2 L761.3,969.4 C761.9,934.3 763.2,910 764.5,906.7 C765.2,905 767.1,904.9 798.9,905.5 C817.4,905.8 833.5,906.3 834.7,906.6 C836.4,906.9 837,906.4 837.4,904.2 C837.7,902.7 838,825.5 838.1,732.5 C838.2,639.6 838.3,556.8 838.3,548.5 C838.3,540.3 838.3,496.2 838.3,450.5 C838.3,404.9 838.3,361.4 838.4,354 C838.4,346.6 838.3,307.6 838.1,267.3 C838,227.1 838.2,187.8 838.6,180.2 L839.3,166.2 L750.9,165.9 C574.7,165.1 279.4,166.5 277.5,168 C274.1,170.7 263.5,175 257.4,176 L250.3,177.3 L249.7,204.3 C249.3,219.2 249,237.1 249,244.2 C249,256.8 249,257 251.3,257 C254.6,257 263,261.3 267.7,265.4 C273.4,270.4 283.1,285.1 285.5,292.5 C287,297 287.5,301.3 287.5,309.5 L287.5,320.5 L282.8,330.1 C279,338 276.9,340.8 270.9,346.4 C264.1,352.8 253.8,359 249.8,359 C247.2,359 245,360.1 245,361.5 C245,367.1 211.4,360.3 200.8,352.5 C186,341.6 177.1,319.5 179.8,300.6 C181.6,288.4 189.9,272.7 198.6,265 C202.8,261.4 211.4,257 214.5,257 C218.9,257 219,256.5 219,216.8 C219,180.3 218.9,178.9 217,177 C215.9,175.9 214.2,175 213.2,175 C212.3,175 208.6,173.6 205.1,172 C195.6,167.5 184.7,156.1 178.7,144.4 C172.5,132.3 171,126 171,112.5 C171,94.8 174.3,85.7 186,71 C196.6,57.7 207.6,50.1 221.5,46.5 C229.2,44.5 245.8,44.5 253.5,46.5 C262.4,48.8 273.2,54.2 277.6,58.6 L281.4,62.5 L576.5,62.6 L871.5,62.7 L877.2,55.4 C891.5,37.2 912.9,24.7 936,21 C944.3,19.7 961.6,19.7 970,21 C992.1,24.5 1012.9,36.8 1026.7,54.5 C1029.7,58.3 1032.7,61.8 1033.4,62.1 C1034,62.5 1052.8,62.9 1075.1,63.1 L1115.6,63.5 L1123.1,57.9 C1136.8,47.4 1149.3,43 1165.1,43 C1182.4,43 1197.1,48.1 1207.1,57.7 L1212.8,63.1 L1228.3,62.8 C1241.6,62.5 1244.1,62.7 1245.5,64.1 C1247.2,65.7 1251.8,79.7 1252.7,85.7 C1253.3,89.5 1251.2,91.2 1242.7,93.4 C1239.4,94.2 1236.7,95 1236.5,95.2 C1236.3,95.4 1236.6,101.6 1237.2,109 C1237.7,116.4 1237.9,124.9 1237.6,127.8 C1237.3,131.3 1237.6,134 1238.6,135.8 C1239.7,138 1240,147.7 1240,192.4 C1240,244.2 1239.9,246.5 1238,250.5 C1236.9,252.7 1234.4,256.1 1232.5,258 L1228.9,261.5 L1205,261.2 L1181.1,260.9 L1180.8,377.2 C1180.6,441.2 1180.6,494 1180.8,494.6 C1181,495.3 1183,496.1 1185.3,496.4 C1200.3,498.7 1220.3,520.6 1225.6,540.5 C1227.5,547.4 1227.4,562.9 1225.4,570.3 C1221,587.4 1205.5,606.9 1190.7,613.9 C1178.8,619.6 1162.7,620.3 1148.5,615.9 C1135.1,611.8 1120.7,599.3 1114,586 C1109.6,577.2 1106,563.9 1106,556.1 C1106,529.2 1125.7,500.8 1146.7,497.4 L1150.7,496.8 L1151.5,393.6 C1152.4,275.2 1152.4,261.9 1151.3,261 C1150.9,260.6 1142.2,260.6 1132,260.9 C1121.8,261.3 1112,261.2 1110.2,260.7 C1106.3,259.7 1100.3,254 1098.4,249.4 C1097.3,246.7 1097,237.9 1097,205.8 L1097,165.5 L1080.7,165.5 L1064.5,165.5 L1064.5,535.2 L1064.5,904.9 L1097.1,904.3 C1115,904 1130.8,904 1132.3,904.4 C1136.5,905.4 1137,909.5 1137.1,943 C1137.1,959.8 1137.7,979.6 1138.3,987 L1139.5,1000.5 L1144,1000.8 C1151.7,1001.2 1175.1,1005 1183,1007.1 C1190.8,1009.2 1196.6,1012.1 1201.9,1016.6 C1204.7,1018.9 1205,1019.8 1205,1024.7 C1205,1027.7 1205.4,1035.4 1206,1041.8 C1206.5,1048.2 1207.2,1057.4 1207.5,1062.2 L1208.2,1070.8 L1222.3,1071.2 C1234.4,1071.5 1237,1071.8 1240,1073.6 C1243.8,1075.8 1247.6,1081.6 1248.6,1086.7 C1249.5,1091.3 1245.8,1098.4 1240.8,1101.7 L1236.9,1104.4 L1093.7,1105.2 C956,1106.1 794.1,1105.7 731.8,1104.3 L702.1,1103.7 L701.8,1160.1 L701.5,1216.5 L697.8,1224.2 C693.6,1232.7 679,1252.1 672.4,1257.8 C658.8,1269.7 622.7,1286.8 585.9,1298.9 C558.7,1307.8 549.7,1310.1 522,1315 C458,1326.3 452.3,1327 409,1328 C367.9,1329 366.7,1329 344.5,1327.9 Z M368.1,1290.9 C367.9,1286.8 367.5,1272.5 367.1,1259 L366.5,1234.5 L347.5,1233.8 C312.4,1232.5 288.8,1230.2 273.7,1226.6 C270.2,1225.8 267.7,1225.6 267.4,1226.2 C266.5,1227.7 265.6,1276.1 266.4,1280.4 C267,1283.7 267.7,1284.4 272.3,1286.5 C275.2,1287.7 280.8,1289.5 284.9,1290.4 C294,1292.5 324.4,1295.7 348,1297.1 C357.6,1297.6 365.6,1298.3 365.9,1298.6 C366.2,1298.8 366.8,1298.9 367.4,1298.7 C368.1,1298.5 368.3,1295.6 368.1,1290.9 Z M447,1295.5 C476.3,1293.1 486.4,1291.9 501.8,1288.9 L507.1,1287.8 L506.5,1258.2 C506.2,1242 505.7,1228.4 505.5,1228.1 C505.2,1227.9 500.6,1228.4 495.2,1229.3 C480.1,1231.9 464.2,1232.9 430.2,1233.5 L398.9,1234.1 L398.5,1242.3 C397.3,1268.6 396.8,1292.1 397.4,1294.4 L398,1297 L413.3,1297 C421.6,1297 436.8,1296.3 447,1295.5 Z M549.5,1280.5 C555.4,1279.1 561.8,1277.3 563.8,1276.4 C565.9,1275.5 572.2,1273.1 578,1271 C600.7,1262.8 617.7,1255 618.7,1252.3 C619.4,1250.4 617.5,1197.1 616.6,1196.3 C616.3,1196 613,1197.1 609.3,1198.8 C588.5,1208.2 559,1217 542.2,1218.7 C539.2,1219 536.6,1219.8 536.4,1220.4 C535.8,1222.2 535.2,1272 535.8,1277.8 C536.1,1281.1 536.7,1283 537.6,1283 C538.3,1283 543.6,1281.9 549.5,1280.5 Z M238.5,1251.1 L238.5,1221.1 L221.5,1217 C198.9,1211.6 190.6,1209 174.4,1202.5 C166.9,1199.5 160.5,1197 160.3,1197 C160.1,1197 160,1209.8 160.2,1225.5 C160.5,1252.4 160.6,1254.1 162.5,1255.9 C164.9,1258.2 183.3,1264.9 206.5,1271.8 C221.8,1276.4 236.7,1280.7 238,1280.90055 C238.3,1281 238.5,1267.5 238.5,1251.1 Z M133.7,1214.3 L133.3,1187.5 L124.4,1181.2 C119.5,1177.8 113.6,1173.6 111.2,1171.9 C108.8,1170.2 106.6,1169.1 106.2,1169.5 C105.8,1169.9 105.2,1180.1 104.9,1192.3 C104.5,1210.5 104.6,1215.1 105.8,1217.8 C107.1,1220.8 111,1224.2 128,1237.4 C130.5,1239.3 132.9,1240.90062 133.3,1240.90062 C133.8,1241 133.9,1229 133.7,1214.3 Z M659.3,1229.5 C666.6,1222.8 671.2,1217.8 671.9,1215.7 C673.1,1212.3 672.3,1168 671,1168 C670.1,1168 651.2,1180.4 647.5,1183.4 L644.5,1185.8 L644.7,1211.9 C644.8,1236.9 645.1,1240 647,1240 C647.4,1240 653,1235.3 659.3,1229.5 Z M435.9,1203.4 C436.4,1202.9 437.1,1189 437.5,1172.6 L438.2,1142.7 L433.9,1143.3 C406.6,1147.3 384.1,1147.6 347.7,1144.6 C337.3,1143.8 332.6,1143.8 332,1144.5 C329.7,1147.3 327.9,1194 329.9,1199.4 C330.7,1201.3 332,1202 336.2,1202.9 C339.1,1203.5 343.8,1204.1 346.5,1204.3 C357.6,1205 435.2,1204.2 435.9,1203.4 Z M300.7,1172.5 C300.4,1155.8 300,1141.8 299.6,1141.2 C299.3,1140.7 296,1139.9 292.3,1139.5 C276.5,1137.9 237.5,1130.6 222.9,1126.5 C216.2,1124.6 209.3,1122.8 207.6,1122.4 L204.3,1121.8 L203.7,1149.6 C203.1,1177.9 203.3,1179.9 206.9,1182.7 C210.7,1185.6 240.8,1193.2 267,1198 C276.1,1199.6 286,1201.4 289,1202 C296.6,1203.4 299.4,1203.7 300.3,1203.2 C300.7,1203 300.9,1189.2 300.7,1172.5 Z M512,1197.5 C524.4,1195 537.4,1192.1 541,1191 C544.6,1190 551.3,1188.2 556,1186.9 C560.7,1185.7 565.6,1184.1 567,1183.4 L569.5,1182.2 L569.5,1153.1 L569.5,1124 L567,1124 C565.6,1124.1 562.7,1124.8 560.5,1125.6 C546.6,1130.8 504.7,1138.1 479,1139.8 L467.5,1140.5 L466.7,1162 C466,1182.6 466.4,1200.3 467.7,1202.3 C468.9,1204.3 489.5,1202.1 512,1197.5 Z M176.4,1166.3 C176.1,1161.4 175.8,1147.3 175.7,1134.8 C175.6,1119.1 175.1,1111.7 174.3,1110.9 C173.7,1110.3 164.4,1106.5 153.8,1102.5 C132.8,1094.6 118.3,1087.8 110.7,1082.3 C108.1,1080.3 105.8,1078.9 105.7,1079.1 C105.6,1079.3 105.7,1092.2 106,1107.7 L106.5,1135.9 L109.5,1139 C113.8,1143.5 132,1155.4 142,1160.2 C146.7,1162.5 156.4,1166.7 163.5,1169.6 C170.7,1172.5 176.6,1174.9 176.7,1174.9 C176.8,1175 176.7,1171.1 176.4,1166.3 Z M616.5,1166.5 C625.4,1163 635.4,1158.5 638.6,1156.6 C641.9,1154.7 650.4,1150 657.5,1146.2 L670.5,1139.3 L670.8,1109.2 L671,1079.1 L664.8,1082.9 C653.3,1089.9 641.6,1095.8 630.5,1100.3 C624.5,1102.8 616.1,1106.3 612,1108.2 C607.9,1110.2 603.3,1112.2 601.7,1112.8 C600.2,1113.5 598.5,1115.1 598,1116.6 C596.9,1119.4 596.6,1159.4 597.6,1167.8 C598,1170.6 598.7,1173 599.2,1173 C599.7,1173 607.5,1170.1 616.5,1166.5 Z M368.4,1088 L368.5,1057.5 L363.5,1057.3 C327.7,1055.6 298,1053.1 282.5,1050.3 C277.6,1049.5 272.3,1048.5 270.9,1048.3 C268.3,1047.8 268.3,1047.9 267.5,1056.1 C266.4,1069.4 266.7,1101.9 268,1103.5 C271.9,1108.2 306.9,1114.4 344.8,1117.1 C353.4,1117.7 360.7,1118.4 361,1118.6 C361.2,1118.9 363,1119 364.9,1118.8 L368.3,1118.5 L368.4,1088 Z M468,1114.1 C487.4,1111.7 502.9,1108.5 505,1106.4 C506.2,1105.2 506.6,1101 506.8,1083.7 C507,1072 506.7,1058.7 506.3,1054 C505.6,1046.4 505.3,1045.5 503.5,1045.6 C502.4,1045.7 490.9,1047.4 478,1049.3 C451.6,1053.3 438.5,1054.6 415.9,1055.6 C407.3,1055.9 399.9,1056.5 399.4,1056.8 C398.9,1057.2 398.5,1059.5 398.5,1062 C398.5,1064.5 398.1,1077.4 397.6,1090.7 L396.8,1114.9 L400.2,1115.4 C412.1,1117.4 446.1,1116.7 468,1114.1 Z M544,1102.5 C566.6,1097.2 616.5,1077 618.5,1072.4 C618.9,1071.4 619.4,1058.3 619.6,1043.3 L619.9,1016.1 L612.2,1018.9 C608,1020.5 601.4,1023.2 597.7,1024.9 C587.5,1029.5 575.6,1032.9 555,1037 L536.5,1040.8 L536.2,1072.4 C536.1,1089.8 536.3,1104 536.7,1104 C537.2,1104 540.4,1103.3 544,1102.5 Z M238.2,1078 C238.3,1064.8 238.4,1051.4 238.500011,1048.3 C238.500011,1041.2 238.6,1041.2 219.5,1036.9 C200.5,1032.7 180,1026.5 170.9,1022.4 C159.2,1017.2 159.6,1016.9 160.3,1030.3 C160.7,1036.4 161,1048.4 161,1056.8 L161,1072 L165.1,1076.5 C169.9,1081.7 176.3,1084.4 200,1091.4 C208.5,1093.9 219.8,1097.2 225,1098.9 C230.2,1100.5 235.3,1101.9 236.3,1101.9 C237.9,1102 238,1100.1 238.2,1078 Z M1174.9,1071.5 C1175.6,1070.8 1175.6,1066.8 1175,1059.5 C1174.5,1053.4 1173.7,1044.4 1173.4,1039.3 L1172.7,1030.1 L1167.6,1028.5 C1164.7,1027.5 1156.7,1026.4 1149,1025.9 C1102.2,1023 1079.5,1022.8 916,1023.3 C758.5,1023.8 748.2,1024 743.5,1025.6 C740.8,1026.6 730.4,1029.5 720.5,1032 L702.5,1036.5 L702.2,1046 C702,1051.2 702.2,1059.2 702.5,1063.7 L703.2,1071.9 L717.8,1072.2 C762,1073.1 1174,1072.4 1174.9,1071.5 Z M133.9,1045.1 C133.5,1026.9 133.7,1014.4 134.5,1011.3 C134.9,1009.4 133.8,1008.3 126.8,1003.6 C122.2,1000.6 116.1,996.1 113.2,993.6 C110.2,991.1 107.5,989 107,989 C106.6,989 106,990 105.6,991.3 C104.8,994.2 104.8,1039.8 105.6,1042.8 C106,1044.2 109.9,1047.6 115.9,1051.7 C121.2,1055.4 127.1,1059.6 129,1061.2 C132,1063.7 132.5,1063.8 133.4,1062.3 C133.9,1061.4 134.1,1053.7 133.9,1045.1 Z M659,1053.5 C664.2,1049.7 669,1046 669.6,1045.1 C671,1043.3 670.3,995.5 668.8,992.8 C667.6,990.3 666.1,990.6 662.5,993.9 C660.9,995.5 656.4,999.3 652.5,1002.2 L645.5,1007.6 L645.8,1034 C646,1048.5 646.4,1060.8 646.6,1061.2 C646.9,1061.7 647.7,1061.7 648.3,1061.2 C649,1060.7 653.8,1057.2 659,1053.5 Z M435,1026 C446.3,1025.5 459,1024.5 463.3,1023.9 L471.1,1022.8 L468.3,1019.8 C466.8,1018.1 461.8,1013.8 457.4,1010.1 C452.9,1006.5 446.7,1001.3 443.6,998.6 L438,993.7 L407.2,993.9 C376.6,994.1 349.4,992.9 336.8,990.9 C328.3,989.5 326.5,990.5 314.5,1002 C309.6,1006.7 302.9,1012.6 299.7,1015 C296.5,1017.4 294.3,1019.6 294.7,1020 C296,1021.2 316.5,1024 338.3,1026 C360.2,1028.1 394,1028.1 435,1026 Z M531,1016.5 C533.5,1015.8 541.8,1013.6 549.5,1011.6 C557.2,1009.5 567.8,1006.6 573,1005 C578.2,1003.4 584.7,1001.6 587.4,1001 C593.2,999.7 602,996.1 602,995 C602,993.7 587.5,988.5 562,980.7 C557.3,979.2 551.7,976.9 549.6,975.4 C545.8,972.8 545.6,972.7 538.6,974 C534.7,974.7 520.9,977.7 508,980.6 C495.1,983.5 482,986.2 479,986.5 C470.7,987.5 470,987.9 473.5,989.7 C475.2,990.6 479,993.2 482,995.4 C485,997.7 488.9,1000.4 490.5,1001.5 C492.2,1002.5 496.8,1006.5 500.8,1010.4 C507.2,1016.5 508.7,1017.5 512.8,1018 C518.2,1018.8 524.6,1018.2 531,1016.5 Z M271,1004.9 C277.8,999.3 286.3,992.7 289.9,990.2 L296.3,985.6 L277.9,981.9 C267.8,979.9 256.4,977.3 252.7,976.1 C248.9,975 244.7,974 243.2,973.9 C238.3,973.6 220.1,979 202.2,986 C192.4,989.7 183.3,993.2 181.8,993.5 C180.2,993.9 179,994.5 179,994.9 C179,996.2 203.8,1003.4 226.5,1008.8 C235.9,1011 245.3,1013.3 247.5,1013.8 C256.8,1016.1 257.5,1015.8 271,1004.9 Z M947.5,991.6 C954.1,991.6 988.5,991.8 1024,991.9 C1059.5,992.1 1092.9,992 1098.3,991.5 L1108.1,990.8 L1107.5,962.6 C1107.1,947.2 1106.5,934.2 1106.1,933.8 C1105.8,933.4 1101.4,933.5 1096.5,934 C1091.5,934.5 1020.9,934.9 939.5,934.8 C858.1,934.8 790.8,934.9 789.8,934.9 C788.3,935 788.2,937.6 788.1,963.5 L788.1,992 L806.8,992.3 C817.1,992.5 850.3,992.4 880.5,992.1 C910.8,991.8 940.9,991.5 947.5,991.6 Z M630.9,982 C637.1,978.9 653.3,967.3 659.8,961.4 C665.8,956 670,949.3 670,945.2 C670,943 669.8,943 654.8,943 C646.4,943 626.3,942.5 610.1,941.8 L580.6,940.7 L579.1,943.1 C578.3,944.4 574.3,948.8 570.3,952.9 C566.3,957 563,960.5 563,960.7 C563,960.9 563.8,961 564.8,961 C565.8,961 571.3,962.6 577.1,964.5 C582.8,966.4 592.7,969.4 599,971.1 C609.6,973.9 622.7,980 624.5,983 C625.4,984.4 626.6,984.2 630.9,982 Z M161,980.9 C168.9,977.2 198.1,967.5 208.7,964.9 C214.4,963.6 219,962.3 219,962 C219,961.6 217.5,960.9 215.7,960.2 C212,958.9 204.7,951.7 200.2,945.1 L197.2,940.6 L165.9,940.9 C127.7,941.1 107,942.6 107,945.1 C107,948.3 122.5,965.1 130.8,970.9 C136.4,974.8 152.4,983 154.5,983 C155.6,983 158.5,982 161,980.9 Z M420.5,962 C455.4,960.5 476.5,957.4 502.5,949.7 C544,937.3 544.8,937 549.5,931.9 C551.4,929.7 553,927.6 553,927.1 C553,926.6 550.5,924.5 547.3,922.4 C526.1,908.3 472.5,895.4 420.7,891.9 C386.4,889.6 325.6,893 295.5,899 C281.4,901.8 249.9,911.9 241.2,916.5 C234.1,920.2 229,925.1 229,928.2 C229,932.4 239.1,937.5 265,946 C287.7,953.5 295.3,955.5 315.1,958.5 C341.5,962.7 375.6,963.8 420.5,962 Z M176.3,918.5 L199.2,918.5 L201.1,916 C202.2,914.6 204.5,911.5 206.3,909 C214.1,898.3 229.3,890.5 266.5,878 C281.3,873 293.8,868.6 294.3,868.1 C295.8,866.6 289.3,862.3 280.6,859.1 C271,855.7 264.4,852.5 261.7,850.2 C259.1,847.9 242.1,848.2 228.8,850.9 C217.1,853.2 186.2,862.4 176.1,866.5 C172.6,868 161.8,873.1 152.1,878 C139.4,884.4 132.5,888.5 127.4,892.8 C117.6,901.1 107,914.8 107,919.1 C107,920 112.3,920.1 130.3,919.4 C143,918.9 163.8,918.5 176.3,918.5 Z M668.5,916.8 C666.2,905.8 650.6,890.1 632.6,880.6 C624.6,876.4 623.9,876.3 621.5,879 C620.5,880.1 618.7,881 617.5,881 C607.2,881 566,895.4 566,899 C566,899.5 567.9,902 570.2,904.7 C572.5,907.3 575.9,911.6 577.7,914.2 L581.1,918.9 L605.2,918.9 C618.4,918.9 629.5,919.1 629.8,919.4 C630.1,919.8 639.1,920 649.7,920 L669.2,920 L668.5,916.8 Z M1016.5,904.2 C1016.5,903.3 950.6,836 949.7,836 C949.6,836 935.5,849.9 918.3,866.9 C889.6,895.3 883,902.7 884.7,904.4 C885,904.7 896.4,904.7 909.9,904.4 C923.4,904.1 952.5,904.3 974.5,904.8 C996.5,905.3 1015,905.6 1015.5,905.5 C1016.1,905.4 1016.5,904.8 1016.5,904.2 Z M555.9,878.5 C561.2,876.1 570.3,872.5 576,870.6 C581.8,868.8 588.5,866.3 591,865.3 L595.5,863.3 L589.7,861.2 C575,855.7 516.9,842 497.4,839.5 C492.4,838.9 492.2,838.9 490.3,842.3 C489.2,844.1 485.9,847.6 483,850.1 C480,852.5 474.8,857.2 471.3,860.5 C463.7,867.5 463.9,868.1 475.7,870 C499.4,873.7 504.5,874.9 519.3,879.7 C536.2,885.1 542.2,885 555.9,878.5 Z M1034.5,817.4 C1034.5,775.5 1034.2,754 1033.5,754 C1032.9,754 1027.5,758.5 1021.5,764 C1015.4,769.5 1005.4,778.6 999.3,784.1 C993.1,789.6 986.3,796.2 984.3,798.8 C982.2,801.3 978.2,805.9 975.3,809 L970.2,814.5 L973.8,819 C975.9,821.5 984.8,830.9 993.6,839.8 C1002.5,848.7 1015.1,861.9 1021.6,869 C1028.1,876.1 1033.7,881.6 1034,881.3 C1034.3,881.1 1034.5,852.3 1034.5,817.4 Z M870.3,876.8 C880.5,869.8 929.9,822 931.3,817.8 C932.2,815.3 926.7,809.3 901.9,785.3 C873.7,758 870.2,754.8 868.7,755.3 C867.8,755.6 867.5,768.6 867.4,809.6 C867.3,839.2 866.9,867 866.5,871.3 C866.1,875.5 866.1,879 866.5,879 C866.9,879 868.6,878 870.3,876.8 Z M345.5,864 C362.9,861.5 412.9,861.2 430.2,863.5 L434.9,864.1 L437.1,859.9 C438.3,857.5 443.7,851.1 449.2,845.4 L459.1,835.2 L449.3,834.6 C419.9,832.6 395.1,832.2 356.9,833.1 C334.1,833.6 311,834.5 305.5,835 C300,835.5 295.1,835.9 294.6,836 C291.7,836.1 300.7,842.6 309.4,846.8 C318.8,851.4 328,857.7 328.9,860.4 C330.9,866 330.9,866.1 334.2,865.6 C336,865.3 341.1,864.6 345.5,864 Z M955.1,791.3 C960,785.6 1014.8,732 1019.9,727.8 L1024.4,724.2 L1021.6,720.9 C1013.3,710.9 951.6,650 949.8,650 C948.2,650 878.1,719.5 877.2,722 C877,722.4 880.4,725.7 884.7,729.2 C892.9,736 934.9,778.1 944.1,788.7 C947.1,792.1 950,794.9 950.6,795 C951.3,795 953.3,793.3 955.1,791.3 Z M1034.3,659 C1034.7,618.8 1034,566 1033.1,566 C1032.6,566 1028.2,569.6 1023.5,574 C1018.7,578.4 1009.7,586.6 1003.3,592.2 C993.1,601.2 970,625.4 970,627.2 C970,627.6 980.9,639.1 994.2,652.7 C1007.4,666.3 1021.5,681 1025.4,685.3 L1032.5,693.1 L1033.3,686.3 C1033.7,682.6 1034.2,670.3 1034.3,659 Z M879.1,681.8 C896.8,666.1 932,630.6 932,628.5 C931.9,625.8 872,566.8 868.6,566.199733 C868.2,566.1 867.6,594.1 867.4,628.5 C867.2,662.9 867.4,691 867.9,691 C868.3,691 873.3,686.9 879.1,681.8 Z M986.9,571.2 L1024,534.5 L994.3,504.9 C977.9,488.7 961,472.3 956.8,468.6 L949.1,461.8 L940.3,470.7 C935.5,475.6 919.2,491.7 904.3,506.4 C889.3,521.2 877,533.6 877,534 C877,534.3 881.6,538.6 887.3,543.5 C900,554.4 943.4,599.2 946.4,604.2 C947.5,606.3 948.8,608 949.2,608 C949.5,608 966.5,591.5 986.9,571.2 Z M1176.3,586.4 C1181.8,584.5 1190.4,576.6 1194.5,569.6 C1197.1,565.2 1197.4,563.8 1197.4,555.1 C1197.5,543.3 1195.5,538.5 1187.4,531 C1171.8,516.8 1147.3,522.2 1138.2,541.8 C1136.1,546.4 1135.6,549 1135.6,555 C1135.6,561.5 1136.1,563.4 1138.9,568.9 C1143.2,577.3 1150.1,584.1 1156.5,586.2 C1162.9,588.3 1170.4,588.4 1176.3,586.4 Z M873.1,499.6 C880.9,493.5 902.1,473.8 911,464.4 C922.3,452.4 932,441.4 932,440.4 C932,440 917.7,425.4 900.3,408.1 C869.4,377.5 868.5,376.7 867.9,379.6 C867.5,381.2 867.5,399.8 867.7,421 C867.9,442.2 867.8,469.5 867.3,481.8 C866.9,494 866.7,504 867,504 C867.3,504 870,502 873.1,499.6 Z M1033.4,497.3 C1034.2,487.5 1034.5,461.9 1034.2,417.8 C1034,376 1034,376.1 1028.9,381.6 C1027.6,383.1 1020.2,389.8 1012.5,396.5 C1000.1,407.4 971,436.6 970.2,439 C969.7,440.4 1030.4,504 1032.1,504 C1032.5,504 1033.1,501 1033.4,497.3 Z M987.7,383.6 L1025.5,346.1 L998,319 C968.7,290 951.6,274 950.1,274 C949,274 910.9,311.7 889.6,333.8 L876.7,347.1 L880.6,350.2 C887,355.4 937.7,407 945.7,416.6 C947.8,419 949.5,421 949.7,421 C949.9,421 967,404.2 987.7,383.6 Z M242.9,330.1 C250.9,326 258.3,315.6 258.3,308.5 C258.3,302.7 253.6,294.6 247.1,289.3 C242.2,285.2 241.6,285 235.3,285 C223.1,285 216.3,288.8 211.6,298.2 C206.7,308 208.8,317 217.9,325.2 C226.5,332.9 234.3,334.5 242.9,330.1 Z M901.8,284.9 C925.4,261.6 931,255.5 931,253.4 C931,251.3 927.3,247.2 912.3,232.7 C901.9,222.7 888.2,209.3 881.7,202.8 C875.3,196.3 869.4,191 868.6,191 C867.4,191 867.3,196.7 867.7,226.8 C867.9,246.4 867.8,274.8 867.3,289.8 C866.9,304.9 866.7,317.3 866.9,317.6 C867.7,318.3 873.1,313.2 901.8,284.9 Z M1034.3,284.5 C1034.4,271.9 1034.4,245.8 1034.3,226.7 C1034,196 1033.8,191.9 1032.4,191.3 C1031.3,190.9 1028.3,193.2 1022.7,198.7 C1018.2,203.1 1008.5,212 1001.1,218.5 C993.1,225.7 985.6,233.3 982.2,237.9 C979.1,242.1 975.2,246.7 973.6,248.2 C970,251.5 966.7,247.4 1001.5,283.3 C1016.3,298.5 1029.3,312.5 1030.5,314.3 L1032.5,317.5 L1033.3,312.5 C1033.7,309.7 1034.1,297.2 1034.3,284.5 Z M957,226.9 L963.2,219.9 L958.4,220.5 C955.7,220.8 950.6,220.7 947,220.2 C943.4,219.6 940.1,219.5 939.7,220 C939.3,220.4 940.8,223.1 943.2,226 C945.6,228.9 947.9,231.9 948.5,232.6 C949,233.4 949.8,234 950.1,234 C950.4,234 953.5,230.8 957,226.9 Z M1210.5,197.8 C1210.5,179.9 1210.1,164.8 1209.7,164.4 C1209.3,164 1206.9,165.9 1204.5,168.7 C1199.9,173.9 1194.2,177 1184.5,179.6 C1177,181.6 1161.7,181.4 1152.7,179.1 C1143.3,176.6 1140.4,175.1 1133.9,169.4 C1131,166.8 1128.4,165.2 1127.9,165.7 C1127.4,166.2 1127.3,180.7 1127.7,198.8 L1128.3,231 L1169.4,230.8 L1210.5,230.5 L1210.5,197.8 Z M974.5,189.7 C1001.4,180.9 1023,150.3 1023,120.9 C1023,103.6 1014.1,80.7 1003.3,70.3 C990.3,57.9 981.9,53.3 967.2,50.4 C948.2,46.8 928.4,50.7 912.2,61.3 C896.5,71.5 890.7,78 884.9,91.8 C880.3,102.8 879.1,109.1 879,121 C879,141.1 885.6,156.7 900.5,171.6 C907.8,178.9 911.2,181.5 918,184.9 C935.1,193.3 957.4,195.2 974.5,189.7 Z M1182.5,145.9 C1192.5,141.8 1196.6,138 1200.9,129 C1204.2,122 1204.5,120.9 1204.4,112.5 C1204.2,99.1 1201.8,93.6 1191.6,83.4 C1180.9,72.7 1176.2,70.5 1165,70.5 C1157.7,70.6 1155.6,71 1150.5,73.5 C1142.6,77.3 1134.8,84.7 1131.9,91.3 C1129.8,95.8 1129.5,98.1 1129.5,108 C1129.5,118.6 1129.7,119.9 1132.3,125.2 C1142.8,146.5 1161.8,154.4 1182.5,145.9 Z M252.5,146 C270.1,139.9 278.1,124.6 273.9,104.8 C272.1,96.5 269.1,91 262.9,84.7 C252.3,74.1 239,70.3 227.8,74.7 C221.2,77.2 212.3,83.9 208.5,89 C202.6,97 201,101.6 201,110.6 C201,117.7 201.4,119.5 204.2,125.1 C206,128.7 209.8,133.9 212.9,137 C224.2,148.3 237.2,151.3 252.5,146 Z M360.3,135.4 C370.9,134.7 371,134.7 368.3,133 C365.2,131.1 350.4,115.4 344.2,107.4 C342,104.6 338.7,101.3 336.8,100.2 C331.9,97.2 322.2,95 310.9,94.3 L301,93.7 L302.6,98.1 C303.5,100.6 304.5,107 304.7,113.2 C305.2,122.8 305,124.6 303.1,129.1 C299.4,137.7 298.6,137.4 325.8,136.7 C338.8,136.3 354.3,135.7 360.3,135.4 Z M819,134.5 C824.8,134.5 833.7,134.9 838.9,135.3 C847.7,136 848.2,136 847.4,134.3 C846.9,133.3 846.5,126.7 846.6,119.5 C846.7,108.8 847.1,105.5 848.9,101 C850,98 851,95.1 851,94.6 C851,92.9 842.5,95.1 839,97.8 C837.1,99.3 828.5,107.5 820,116 C811.5,124.6 803.2,132.6 801.5,133.8 L798.5,136 L803.5,135.3 C806.3,134.8 813.2,134.5 819,134.5 Z M472.5,129.4 C470.5,126.8 468,123 467,121 C464.4,115.9 461.1,114 454.9,114 C450.4,114 449.5,114.4 447.1,117.1 C442.7,122.4 435.7,129.4 432.5,131.6 L429.5,133.7 L448.5,133.3 C459,133 469.3,133.2 471.5,133.8 C473.7,134.3 475.6,134.6 475.8,134.4 C476,134.3 474.5,132.1 472.5,129.4 Z M604.4,133.8 C597.9,123 577.7,102 573.8,102 C571.1,102 567.4,104.7 555.5,115.4 C550,120.3 543.3,125.9 540.7,127.8 C537.2,130.4 536.2,131.5 537.2,132.1 C537.9,132.6 551.8,133 568,133.1 C584.2,133.2 598.9,133.6 600.5,134 C604.9,135.1 605.2,135.1 604.4,133.8 Z M1099.3,131.3 C1098.9,129.2 1098.5,120.2 1098.5,111.3 L1098.5,95 L1075.8,95 C1063.2,95 1053,95.4 1053,95.8 C1053,96.2 1053.5,97.1 1054,97.6 C1055.5,99.1 1057.1,119.4 1056.4,127.8 L1055.7,135 L1077.9,135 L1100.1,135 L1099.3,131.3 Z M729,133.3 C729,132.9 728.1,131.7 727.1,130.6 C726.1,129.4 721.4,123.5 716.7,117.3 L708.3,106.1 L703.9,108.9 C699.5,111.6 682,129.5 682,131.1 C682,132.2 681,132.1 704.5,132.9 C715,133.3 724.7,133.7 726.3,133.8 C727.8,133.9 729,133.7 729,133.3 Z M408,120.2 C412.4,114.6 418.9,107.7 422.2,104.8 C425.6,101.9 429.7,98.3 431.4,96.7 L434.5,94 L429.5,94.5 C426.8,94.7 414.6,95.2 402.5,95.5 C380.9,96 366.746753,94.5 361.846753,95.5 C359.646753,96 364.626753,101.29337 368.045367,104.8 C381.376092,118.473943 381.376092,118.473943 387.076092,122.873943 C390.553643,125.824117 392.611203,128.30161 394.521522,130.119118 C396.875837,132.560391 396.3,132.9 398,131.7 C399,131 403.5,125.9 408,120.2 Z M766.6,126.8 C769.3,121.6 776.8,114.3 789.8,104.3 C796.5,99.1 802,94.6 802,94.2 C802,93.8 793.1,93.8 782.3,94.2 C771.4,94.6 754.1,94.7 743.8,94.3 C731,93.9 725,94.1 725,94.8 C725,96.1 733.6,103.9 741,109.3 C748.5,114.8 757.9,123.9 759.6,127.3 C761.6,131 764.5,130.8 766.6,126.8 Z M647.5,124.5 C649.2,123.3 653,119.9 656,117 C659,114.1 664.4,109.4 668,106.5 C671.6,103.6 675.8,99.6 677.3,97.7 L680,94.1 L645.6,94 C626.6,94 609.6,93.7 607.8,93.4 C604.7,92.9 604.6,93 606.4,94.4 C616.5,102.6 639,124.1 639,125.6 C639,128.5 642.7,128 647.5,124.5 Z M508.7,123.1 C510.3,120.9 517.5,113.7 524.8,107 C532.1,100.4 538,94.5 538,94 C538,93.5 535.2,93.3 531.8,93.6 C528.3,93.8 514.9,94.5 502,95 C476.8,96.1 473.4,96.5 472.6,98.5 C472.3,99.3 476.3,103.2 482.8,108.3 C488.7,113 496,119.1 499,121.9 C502,124.6 504.8,126.9 505.2,127 C505.5,127 507.1,125.2 508.7,123.1 Z" id="pkt6ppLg6" fill="#102337" fill-rule="nonzero"></path>
        <path d="M974.5,189.7 C1001.4,180.9 1023,150.3 1023,120.9 C1023,103.6 1014.1,80.7 1003.3,70.3 C990.3,57.9 981.9,53.3 967.2,50.4 C948.2,46.8 928.4,50.7 912.2,61.3 C896.5,71.5 890.7,78 884.9,91.8 C880.3,102.8 879.1,109.1 879,121 C879,141.1 885.6,156.7 900.5,171.6 C907.8,178.9 911.2,181.5 918,184.9 C935.1,193.3 957.4,195.2 974.5,189.7 Z" id="pkt6ppLg6-path" fill="#C6D7E2" fill-rule="nonzero"></path>
        <path d="M420.5,962 C455.4,960.5 476.5,957.4 502.5,949.7 C544,937.3 544.8,937 549.5,931.9 C551.4,929.7 553,927.6 553,927.1 C553,926.6 550.5,924.5 547.3,922.4 C526.1,908.3 472.5,895.4 420.7,891.9 C386.4,889.6 325.6,893 295.5,899 C281.4,901.8 249.9,911.9 241.2,916.5 C234.1,920.2 229,925.1 229,928.2 C229,932.4 239.1,937.5 265,946 C287.7,953.5 295.3,955.5 315.1,958.5 C341.5,962.7 375.6,963.8 420.5,962 Z" id="pkt6ppLg6-path" fill="#80A3B9" fill-rule="nonzero"></path>
        <path d="M1160.5,567.1 C1148.5,559.8 1152.1,539 1165.3,539 C1174.3,539 1181,546.2 1181,555.8 C1181,559.7 1180.5,560.8 1176.6,564.6 C1172.8,568.5 1171.7,569 1167.9,569 C1165.4,569 1162.2,568.2 1160.5,567.1 Z" id="p5jQdeRHO" fill="#102337" fill-rule="nonzero"></path>
        <path d="M939.4,167.2 C926.4,162.6 913.7,151.2 907.4,138.5 C904.1,131.7 903.8,130.5 903.9,122.6 C904,107.8 907.9,98.6 918.7,87.6 C926.2,80 929.7,77.9 939.1,75.4 C953.5,71.5 969.2,73.7 979.4,81 C984.8,84.9 993.5,95.6 996.3,101.8 C998.9,107.7 999.8,121.1 998,127.8 C994,142.7 980.4,160.1 968.4,165.7 C960.7,169.3 947.3,170 939.4,167.2 Z M955.6,139.4 C959.7,137.4 966.7,130 968.5,125.6 C970.9,119.9 966.9,111.1 959.5,105.4 C949.2,97.6 934,107.7 934,122.4 C934,128.8 936.4,133.5 941.9,137.8 C946.7,141.4 950.4,141.9 955.6,139.4 Z" id="pgAw1Qty4" fill="#102337" fill-rule="nonzero"></path>
        <path d="M1157.9,126.8 C1147.6,120.9 1147.4,105.1 1157.6,97.4 C1165.3,91.5 1177.7,95.5 1182.9,105.7 C1185.9,111.6 1182.4,122.6 1176.1,126.7 C1171.5,129.8 1163,129.8 1157.9,126.8 Z" id="p2a7XyMXi" fill="#102337" fill-rule="nonzero"></path>
        <path d="M233.6,127.6 C226.2,124.8 221,117.7 221,110.1 C221,106.1 225,99 228.4,96.9 C230.4,95.7 233.4,95 236.8,95 C251,95 258.4,107.4 251.9,120.6 C248.5,127.8 241.5,130.5 233.6,127.6 Z" id="p1EBBXWbLn" fill="#102337" fill-rule="nonzero"></path>
        <g id="rock" transform="translate(107, 358)" fill-rule="nonzero">
            <g id="Group">
                <path d="M97.5630252,274.264358 C84.3378151,271.448058 75.8823529,267.331926 60.9226891,256.933277 C55.502521,253.033784 45.7462185,246.967906 39.4588235,243.718328 C27.5344538,237.219173 18.8621849,227.253801 6.7210084,205.58995 C0,193.674831 0,193.241554 0,163.345439 C0,140.815034 0.867226891,131.716216 3.25210084,126.950169 C4.98655462,123.483953 14.9596639,110.918919 25.3663866,99.2204393 C35.7731092,87.305321 49.2151261,70.407517 55.2857143,61.7419764 C86.5058824,16.464527 106.452101,0 129.867227,0 C146.344538,0 159.136134,7.36570947 178.865546,28.5962838 C198.811765,50.0434967 241.739496,102.903294 251.278992,117.851351 L258,128.683277 L258,161.179054 L258,193.89147 L247.810084,211.222551 C229.381513,243.068412 197.510924,267.331926 165.640336,274.04772 C147.862185,277.947213 114.040336,277.947213 97.5630252,274.264358 Z M99.7310924,225.304054 C101.89916,224.004223 106.885714,217.071791 110.788235,209.92272 C118.159664,196.057855 124.880672,189.991977 140.92437,181.976352 C174.312605,165.511825 175.396639,144.064612 147.862185,57.4092061 C139.840336,31.8458615 128.566387,22.9636825 114.257143,30.5460304 C104.284034,35.9619933 88.2403361,50.9100507 80.6521008,62.391892 C76.3159664,69.1076859 70.2453782,77.7732264 67.4268908,82.1059967 C64.6084034,86.438767 56.1529412,96.4041386 48.5647059,104.419764 C26.4504202,127.816723 24.2823529,133.016047 24.2823529,162.478885 C24.2823529,188.258868 26.0168067,194.974662 34.9058824,203.856841 C37.9411765,206.889781 42.0605042,207.972973 52.0336134,207.972973 C63.7411765,207.972973 65.9092437,208.622889 73.2806723,215.555321 C85.205042,226.170608 92.7932773,228.986909 99.7310924,225.304054 Z" id="p2pcjBeqy" fill="#102337"></path>
                <path d="M99.7310924,225.304054 C101.89916,224.004223 106.885714,217.071791 110.788235,209.92272 C118.159664,196.057855 124.880672,189.991977 140.92437,181.976352 C174.312605,165.511825 175.396639,144.064612 147.862185,57.4092061 C139.840336,31.8458615 128.566387,22.9636825 114.257143,30.5460304 C104.284034,35.9619933 88.2403361,50.9100507 80.6521008,62.391892 C76.3159664,69.1076859 70.2453782,77.7732264 67.4268908,82.1059967 C64.6084034,86.438767 56.1529412,96.4041386 48.5647059,104.419764 C26.4504202,127.816723 24.2823529,133.016047 24.2823529,162.478885 C24.2823529,188.258868 26.0168067,194.974662 34.9058824,203.856841 C37.9411765,206.889781 42.0605042,207.972973 52.0336134,207.972973 C63.7411765,207.972973 65.9092437,208.622889 73.2806723,215.555321 C85.205042,226.170608 92.7932773,228.986909 99.7310924,225.304054 Z" id="p2pcjBeqy-path" fill="#C6D7E2"></path>
                <path d="M66.2031301,164.876456 C53.5808069,151.813479 53.1300097,129.741551 65.3015356,118.930811 C73.4158862,111.723651 75.6698725,111.273203 90.9969792,117.129021 C113.536842,125.687523 116.692423,143.254976 98.6605325,162.173771 C83.3334258,177.939434 78.8254533,178.389881 66.2031301,164.876456 Z" id="pPfsnosnc" fill="#102337"></path>
            </g>
        </g>
    </g>
</svg>